<svg width="258" height="54" viewBox="0 0 258 54" fill="none" xmlns="http://www.w3.org/2000/svg">
<g filter="url(#filter0_g_457_11)">
<path d="M16.1439 40.048C14.2559 40.048 12.5599 39.712 11.0559 39.04C9.55191 38.336 8.27191 37.28 7.21591 35.872C6.19191 34.464 5.39191 32.672 4.81591 30.496C4.27191 28.288 3.99991 25.696 3.99991 22.72C3.99991 19.744 4.27191 17.168 4.81591 14.992C5.39191 12.784 6.19191 10.976 7.21591 9.56804C8.27191 8.16004 9.55191 7.12004 11.0559 6.44804C12.5599 5.74404 14.2559 5.39204 16.1439 5.39204C18.8959 5.39204 21.1039 5.98404 22.7679 7.16804C24.4319 8.32004 25.7439 10.096 26.7039 12.496L23.6319 14.368C23.0239 12.544 22.1439 11.168 20.9919 10.24C19.8719 9.28004 18.2559 8.80004 16.1439 8.80004C13.5839 8.80004 11.5999 9.72804 10.1919 11.584C8.81591 13.408 8.12791 15.872 8.12791 18.976V26.464C8.12791 29.568 8.81591 32.048 10.1919 33.904C11.5999 35.728 13.5839 36.64 16.1439 36.64C18.3199 36.64 19.9999 36.144 21.1839 35.152C22.3679 34.128 23.2639 32.656 23.8719 30.736L26.9439 32.656C25.9839 35.056 24.6239 36.896 22.8639 38.176C21.1359 39.424 18.8959 40.048 16.1439 40.048ZM40.5062 40.048C39.0662 40.048 37.7222 39.808 36.4742 39.328C35.2262 38.848 34.1542 38.08 33.2582 37.024C32.3622 35.968 31.6582 34.624 31.1462 32.992C30.6342 31.36 30.3782 29.392 30.3782 27.088C30.3782 24.784 30.6342 22.816 31.1462 21.184C31.6582 19.552 32.3622 18.208 33.2582 17.152C34.1542 16.096 35.2262 15.328 36.4742 14.848C37.7222 14.368 39.0662 14.128 40.5062 14.128C41.9462 14.128 43.2902 14.368 44.5382 14.848C45.7862 15.328 46.8582 16.096 47.7542 17.152C48.6502 18.208 49.3542 19.552 49.8662 21.184C50.3782 22.816 50.6342 24.784 50.6342 27.088C50.6342 29.392 50.3782 31.36 49.8662 32.992C49.3542 34.624 48.6502 35.968 47.7542 37.024C46.8582 38.08 45.7862 38.848 44.5382 39.328C43.2902 39.808 41.9462 40.048 40.5062 40.048ZM40.5062 36.784C42.4902 36.784 44.0102 36.192 45.0662 35.008C46.1542 33.824 46.6982 32.016 46.6982 29.584V24.592C46.6982 22.16 46.1542 20.352 45.0662 19.168C44.0102 17.984 42.4902 17.392 40.5062 17.392C38.5222 17.392 36.9862 17.984 35.8982 19.168C34.8422 20.352 34.3142 22.16 34.3142 24.592V29.584C34.3142 32.016 34.8422 33.824 35.8982 35.008C36.9862 36.192 38.5222 36.784 40.5062 36.784ZM56.2457 39.472V14.704H59.8937V18.736H60.3737C60.8537 17.2 61.5577 16.048 62.4857 15.28C63.4137 14.512 64.7257 14.128 66.4217 14.128C67.9577 14.128 69.2537 14.512 70.3097 15.28C71.3977 16.016 72.2137 17.168 72.7577 18.736H73.2377C73.7497 17.2 74.5497 16.048 75.6377 15.28C76.7257 14.512 78.1657 14.128 79.9577 14.128C82.0697 14.128 83.7657 14.88 85.0457 16.384C86.3257 17.888 86.9657 20.208 86.9657 23.344V39.472H83.3177V23.584C83.3177 21.6 82.9177 20.08 82.1177 19.024C81.3497 17.968 80.1497 17.44 78.5177 17.44C77.0777 17.44 75.8617 17.888 74.8697 18.784C73.9097 19.68 73.4297 20.944 73.4297 22.576V39.472H69.7817V23.584C69.7817 21.6 69.3817 20.08 68.5817 19.024C67.8137 17.968 66.6137 17.44 64.9817 17.44C63.5417 17.44 62.3257 17.888 61.3337 18.784C60.3737 19.68 59.8937 20.944 59.8937 22.576V39.472H56.2457ZM95.8509 8.70404C94.3469 8.70404 93.5949 8.04804 93.5949 6.73604V5.96805C93.5949 4.65604 94.3469 4.00004 95.8509 4.00004C97.3549 4.00004 98.1069 4.65604 98.1069 5.96805V6.73604C98.1069 8.04804 97.3549 8.70404 95.8509 8.70404ZM94.0269 14.704H97.6749V39.472H94.0269V14.704ZM104.949 39.472V14.704H108.597V18.736H109.077C109.557 17.2 110.293 16.048 111.285 15.28C112.309 14.512 113.685 14.128 115.413 14.128C117.621 14.128 119.349 14.88 120.597 16.384C121.877 17.888 122.517 20.208 122.517 23.344V39.472H118.869V23.584C118.869 21.6 118.453 20.08 117.621 19.024C116.821 17.968 115.573 17.44 113.877 17.44C112.405 17.44 111.157 17.888 110.133 18.784C109.109 19.68 108.597 20.944 108.597 22.576V39.472H104.949ZM148.47 42.256C148.47 44.88 147.574 46.768 145.782 47.92C144.022 49.072 141.286 49.648 137.574 49.648C134.022 49.648 131.478 49.12 129.942 48.064C128.438 47.008 127.686 45.488 127.686 43.504C127.686 42.16 128.022 41.104 128.694 40.336C129.366 39.568 130.23 39.088 131.286 38.896V38.224C130.646 37.872 130.134 37.424 129.75 36.88C129.398 36.304 129.222 35.632 129.222 34.864C129.222 33.84 129.51 32.96 130.086 32.224C130.694 31.488 131.67 31.04 133.014 30.88V30.352C131.734 29.712 130.726 28.768 129.99 27.52C129.286 26.24 128.934 24.64 128.934 22.72C128.934 19.904 129.702 17.776 131.238 16.336C132.774 14.896 134.838 14.176 137.43 14.176C138.966 14.176 140.358 14.448 141.606 14.992V14.128C141.606 13.2 141.814 12.528 142.23 12.112C142.646 11.696 143.318 11.488 144.246 11.488H147.558V14.704H143.286V16.048C144.118 16.784 144.758 17.696 145.206 18.784C145.686 19.872 145.926 21.184 145.926 22.72C145.926 25.536 145.158 27.664 143.622 29.104C142.086 30.544 140.022 31.264 137.43 31.264C136.662 31.264 135.878 31.184 135.078 31.024C134.182 31.184 133.494 31.552 133.014 32.128C132.566 32.672 132.342 33.232 132.342 33.808C132.342 34.448 132.566 34.928 133.014 35.248C133.462 35.568 134.198 35.728 135.222 35.728H140.646C143.43 35.728 145.43 36.288 146.646 37.408C147.862 38.528 148.47 40.144 148.47 42.256ZM145.062 42.496C145.062 41.408 144.726 40.576 144.054 40C143.382 39.456 142.23 39.184 140.598 39.184H133.062C132.326 39.536 131.798 39.984 131.478 40.528C131.19 41.072 131.046 41.76 131.046 42.592C131.046 43.84 131.43 44.816 132.198 45.52C132.966 46.256 134.198 46.624 135.894 46.624H139.062C141.046 46.624 142.534 46.288 143.526 45.616C144.55 44.976 145.062 43.936 145.062 42.496ZM137.43 28.288C138.934 28.288 140.102 27.904 140.934 27.136C141.766 26.368 142.182 25.184 142.182 23.584V21.808C142.182 20.208 141.766 19.024 140.934 18.256C140.102 17.488 138.934 17.104 137.43 17.104C135.926 17.104 134.758 17.488 133.926 18.256C133.094 19.024 132.678 20.208 132.678 21.808V23.584C132.678 25.184 133.094 26.368 133.926 27.136C134.758 27.904 135.926 28.288 137.43 28.288ZM171.485 40.048C169.085 40.048 166.989 39.552 165.197 38.56C163.405 37.536 161.917 36.128 160.733 34.336L163.517 32.032C164.541 33.536 165.693 34.704 166.973 35.536C168.253 36.336 169.757 36.736 171.485 36.736C176.029 36.736 178.301 34.608 178.301 30.352C178.301 28.624 177.885 27.312 177.053 26.416C176.221 25.52 174.781 24.816 172.733 24.304L170.237 23.68C167.293 22.944 165.117 21.872 163.709 20.464C162.333 19.024 161.645 17.008 161.645 14.416C161.645 11.44 162.573 9.20004 164.429 7.69604C166.285 6.16004 168.749 5.39204 171.821 5.39204C174.157 5.39204 176.109 5.82404 177.677 6.68804C179.277 7.55204 180.669 8.91204 181.853 10.768L179.021 12.784C178.157 11.44 177.165 10.432 176.045 9.76005C174.957 9.05604 173.501 8.70404 171.677 8.70404C169.629 8.70404 168.061 9.15204 166.973 10.048C165.917 10.944 165.389 12.4 165.389 14.416C165.389 16.048 165.821 17.28 166.685 18.112C167.581 18.944 169.005 19.6 170.957 20.08L173.453 20.704C175.021 21.088 176.349 21.552 177.437 22.096C178.525 22.608 179.405 23.248 180.077 24.016C180.781 24.784 181.277 25.696 181.565 26.752C181.885 27.776 182.045 28.976 182.045 30.352C182.045 33.52 181.101 35.936 179.213 37.6C177.357 39.232 174.781 40.048 171.485 40.048ZM196.272 40.048C194.832 40.048 193.488 39.808 192.24 39.328C190.992 38.848 189.92 38.08 189.024 37.024C188.128 35.968 187.424 34.624 186.912 32.992C186.4 31.36 186.144 29.392 186.144 27.088C186.144 24.784 186.4 22.816 186.912 21.184C187.424 19.552 188.128 18.208 189.024 17.152C189.92 16.096 190.992 15.328 192.24 14.848C193.488 14.368 194.832 14.128 196.272 14.128C197.712 14.128 199.056 14.368 200.304 14.848C201.552 15.328 202.624 16.096 203.52 17.152C204.416 18.208 205.12 19.552 205.632 21.184C206.144 22.816 206.4 24.784 206.4 27.088C206.4 29.392 206.144 31.36 205.632 32.992C205.12 34.624 204.416 35.968 203.52 37.024C202.624 38.08 201.552 38.848 200.304 39.328C199.056 39.808 197.712 40.048 196.272 40.048ZM196.272 36.784C198.256 36.784 199.776 36.192 200.832 35.008C201.92 33.824 202.464 32.016 202.464 29.584V24.592C202.464 22.16 201.92 20.352 200.832 19.168C199.776 17.984 198.256 17.392 196.272 17.392C194.288 17.392 192.752 17.984 191.664 19.168C190.608 20.352 190.08 22.16 190.08 24.592V29.584C190.08 32.016 190.608 33.824 191.664 35.008C192.752 36.192 194.288 36.784 196.272 36.784ZM220.459 40.048C219.019 40.048 217.675 39.808 216.427 39.328C215.179 38.848 214.107 38.08 213.211 37.024C212.315 35.968 211.611 34.624 211.099 32.992C210.587 31.36 210.331 29.392 210.331 27.088C210.331 24.784 210.587 22.816 211.099 21.184C211.611 19.552 212.315 18.208 213.211 17.152C214.107 16.096 215.179 15.328 216.427 14.848C217.675 14.368 219.019 14.128 220.459 14.128C221.899 14.128 223.243 14.368 224.491 14.848C225.739 15.328 226.811 16.096 227.707 17.152C228.603 18.208 229.307 19.552 229.819 21.184C230.331 22.816 230.587 24.784 230.587 27.088C230.587 29.392 230.331 31.36 229.819 32.992C229.307 34.624 228.603 35.968 227.707 37.024C226.811 38.08 225.739 38.848 224.491 39.328C223.243 39.808 221.899 40.048 220.459 40.048ZM220.459 36.784C222.443 36.784 223.963 36.192 225.019 35.008C226.107 33.824 226.651 32.016 226.651 29.584V24.592C226.651 22.16 226.107 20.352 225.019 19.168C223.963 17.984 222.443 17.392 220.459 17.392C218.475 17.392 216.939 17.984 215.851 19.168C214.795 20.352 214.267 22.16 214.267 24.592V29.584C214.267 32.016 214.795 33.824 215.851 35.008C216.939 36.192 218.475 36.784 220.459 36.784ZM236.199 39.472V14.704H239.847V18.736H240.327C240.807 17.2 241.543 16.048 242.535 15.28C243.559 14.512 244.935 14.128 246.663 14.128C248.871 14.128 250.599 14.88 251.847 16.384C253.127 17.888 253.767 20.208 253.767 23.344V39.472H250.119V23.584C250.119 21.6 249.703 20.08 248.871 19.024C248.071 17.968 246.823 17.44 245.127 17.44C243.655 17.44 242.407 17.888 241.383 18.784C240.359 19.68 239.847 20.944 239.847 22.576V39.472H236.199Z" fill="black" fill-opacity="0.3"/>
</g>
<defs>
<filter id="filter0_g_457_11" x="0" y="0" width="257.767" height="53.6481" filterUnits="userSpaceOnUse" color-interpolation-filters="sRGB">
<feFlood flood-opacity="0" result="BackgroundImageFix"/>
<feBlend mode="normal" in="SourceGraphic" in2="BackgroundImageFix" result="shape"/>
<feTurbulence type="fractalNoise" baseFrequency="2 2" numOctaves="3" seed="1118" />
<feDisplacementMap in="shape" scale="8" xChannelSelector="R" yChannelSelector="G" result="displacedImage" width="100%" height="100%" />
<feMerge result="effect1_texture_457_11">
<feMergeNode in="displacedImage"/>
</feMerge>
</filter>
</defs>
</svg>
