<svg width="675" height="130" viewBox="0 0 675 130" fill="none" xmlns="http://www.w3.org/2000/svg">
<g filter="url(#filter0_g_459_4)">
<path d="M36.3842 100.128C31.3496 100.128 26.8269 99.232 22.8162 97.44C18.8056 95.5627 15.3922 92.7467 12.5762 88.992C9.84557 85.2373 7.71224 80.4587 6.17624 74.656C4.72557 68.768 4.00024 61.856 4.00024 53.92C4.00024 45.984 4.72557 39.1147 6.17624 33.312C7.71224 27.424 9.84557 22.6027 12.5762 18.848C15.3922 15.0933 18.8056 12.32 22.8162 10.528C26.8269 8.65067 31.3496 7.71201 36.3842 7.71201C43.7229 7.71201 49.6109 9.29067 54.0482 12.448C58.4856 15.52 61.9842 20.256 64.5442 26.656L56.3522 31.648C54.7309 26.784 52.3842 23.1147 49.3122 20.64C46.3256 18.08 42.0162 16.8 36.3842 16.8C29.5576 16.8 24.2669 19.2747 20.5122 24.224C16.8429 29.088 15.0082 35.6587 15.0082 43.936V63.904C15.0082 72.1813 16.8429 78.7947 20.5122 83.744C24.2669 88.608 29.5576 91.04 36.3842 91.04C42.1869 91.04 46.6669 89.7173 49.8242 87.072C52.9816 84.3413 55.3709 80.416 56.9922 75.296L65.1842 80.416C62.6242 86.816 58.9976 91.7227 54.3042 95.136C49.6962 98.464 43.7229 100.128 36.3842 100.128ZM101.35 100.128C97.5102 100.128 93.9262 99.488 90.5982 98.208C87.2702 96.928 84.4116 94.88 82.0222 92.064C79.6329 89.248 77.7556 85.664 76.3902 81.312C75.0249 76.96 74.3422 71.712 74.3422 65.568C74.3422 59.424 75.0249 54.176 76.3902 49.824C77.7556 45.472 79.6329 41.888 82.0222 39.072C84.4116 36.256 87.2702 34.208 90.5982 32.928C93.9262 31.648 97.5102 31.008 101.35 31.008C105.19 31.008 108.774 31.648 112.102 32.928C115.43 34.208 118.289 36.256 120.678 39.072C123.068 41.888 124.945 45.472 126.31 49.824C127.676 54.176 128.358 59.424 128.358 65.568C128.358 71.712 127.676 76.96 126.31 81.312C124.945 85.664 123.068 89.248 120.678 92.064C118.289 94.88 115.43 96.928 112.102 98.208C108.774 99.488 105.19 100.128 101.35 100.128ZM101.35 91.424C106.641 91.424 110.694 89.8453 113.51 86.688C116.412 83.5307 117.862 78.7093 117.862 72.224V58.912C117.862 52.4267 116.412 47.6053 113.51 44.448C110.694 41.2907 106.641 39.712 101.35 39.712C96.0596 39.712 91.9636 41.2907 89.0622 44.448C86.2462 47.6053 84.8382 52.4267 84.8382 58.912V72.224C84.8382 78.7093 86.2462 83.5307 89.0622 86.688C91.9636 89.8453 96.0596 91.424 101.35 91.424ZM143.322 98.592V32.544H153.05V43.296H154.33C155.61 39.2 157.488 36.128 159.962 34.08C162.437 32.032 165.936 31.008 170.458 31.008C174.554 31.008 178.01 32.032 180.826 34.08C183.728 36.0427 185.904 39.1147 187.354 43.296H188.634C190 39.2 192.133 36.128 195.034 34.08C197.936 32.032 201.776 31.008 206.554 31.008C212.186 31.008 216.709 33.0133 220.122 37.024C223.536 41.0347 225.242 47.2213 225.242 55.584V98.592H215.514V56.224C215.514 50.9333 214.448 46.88 212.314 44.064C210.266 41.248 207.066 39.84 202.714 39.84C198.874 39.84 195.632 41.0347 192.986 43.424C190.426 45.8133 189.146 49.184 189.146 53.536V98.592H179.418V56.224C179.418 50.9333 178.352 46.88 176.218 44.064C174.17 41.248 170.97 39.84 166.618 39.84C162.778 39.84 159.536 41.0347 156.89 43.424C154.33 45.8133 153.05 49.184 153.05 53.536V98.592H143.322ZM248.936 16.544C244.926 16.544 242.92 14.7947 242.92 11.296V9.24801C242.92 5.74934 244.926 4.00001 248.936 4.00001C252.947 4.00001 254.952 5.74934 254.952 9.24801V11.296C254.952 14.7947 252.947 16.544 248.936 16.544ZM244.072 32.544H253.8V98.592H244.072V32.544ZM273.197 98.592V32.544H282.925V43.296H284.205C285.485 39.2 287.448 36.128 290.093 34.08C292.824 32.032 296.493 31.008 301.101 31.008C306.989 31.008 311.597 33.0133 314.925 37.024C318.339 41.0347 320.045 47.2213 320.045 55.584V98.592H310.317V56.224C310.317 50.9333 309.208 46.88 306.989 44.064C304.856 41.248 301.528 39.84 297.005 39.84C293.08 39.84 289.752 41.0347 287.021 43.424C284.291 45.8133 282.925 49.184 282.925 53.536V98.592H273.197ZM389.254 106.016C389.254 113.013 386.865 118.048 382.086 121.12C377.393 124.192 370.097 125.728 360.198 125.728C350.726 125.728 343.942 124.32 339.846 121.504C335.836 118.688 333.83 114.635 333.83 109.344C333.83 105.76 334.726 102.944 336.518 100.896C338.31 98.848 340.614 97.568 343.43 97.056V95.264C341.724 94.3253 340.358 93.1307 339.334 91.68C338.396 90.144 337.926 88.352 337.926 86.304C337.926 83.5733 338.694 81.2267 340.23 79.264C341.852 77.3013 344.454 76.1067 348.038 75.68V74.272C344.625 72.5653 341.937 70.048 339.974 66.72C338.097 63.3067 337.158 59.04 337.158 53.92C337.158 46.4107 339.206 40.736 343.302 36.896C347.398 33.056 352.902 31.136 359.814 31.136C363.91 31.136 367.622 31.8613 370.95 33.312V31.008C370.95 28.5333 371.505 26.7413 372.614 25.632C373.724 24.5227 375.516 23.968 377.99 23.968H386.822V32.544H375.43V36.128C377.649 38.0907 379.356 40.5227 380.55 43.424C381.83 46.3253 382.47 49.824 382.47 53.92C382.47 61.4293 380.422 67.104 376.326 70.944C372.23 74.784 366.726 76.704 359.814 76.704C357.766 76.704 355.676 76.4907 353.542 76.064C351.153 76.4907 349.318 77.472 348.038 79.008C346.844 80.4587 346.246 81.952 346.246 83.488C346.246 85.1947 346.844 86.4747 348.038 87.328C349.233 88.1813 351.196 88.608 353.926 88.608H368.39C375.814 88.608 381.148 90.1013 384.39 93.088C387.633 96.0747 389.254 100.384 389.254 106.016ZM380.166 106.656C380.166 103.755 379.27 101.536 377.478 100C375.686 98.5493 372.614 97.824 368.262 97.824H348.166C346.204 98.7627 344.796 99.9573 343.942 101.408C343.174 102.859 342.79 104.693 342.79 106.912C342.79 110.24 343.814 112.843 345.862 114.72C347.91 116.683 351.196 117.664 355.718 117.664H364.166C369.457 117.664 373.425 116.768 376.07 114.976C378.801 113.269 380.166 110.496 380.166 106.656ZM359.814 68.768C363.825 68.768 366.94 67.744 369.158 65.696C371.377 63.648 372.486 60.4907 372.486 56.224V51.488C372.486 47.2213 371.377 44.064 369.158 42.016C366.94 39.968 363.825 38.944 359.814 38.944C355.804 38.944 352.689 39.968 350.47 42.016C348.252 44.064 347.142 47.2213 347.142 51.488V56.224C347.142 60.4907 348.252 63.648 350.47 65.696C352.689 67.744 355.804 68.768 359.814 68.768ZM450.627 100.128C444.227 100.128 438.638 98.8053 433.859 96.16C429.081 93.4293 425.113 89.6747 421.955 84.896L429.379 78.752C432.11 82.7627 435.182 85.8773 438.595 88.096C442.009 90.2293 446.019 91.296 450.627 91.296C462.745 91.296 468.803 85.6213 468.803 74.272C468.803 69.664 467.694 66.1653 465.475 63.776C463.257 61.3867 459.417 59.5093 453.955 58.144L447.299 56.48C439.449 54.5173 433.646 51.6587 429.891 47.904C426.222 44.064 424.387 38.688 424.387 31.776C424.387 23.84 426.862 17.8667 431.811 13.856C436.761 9.76 443.331 7.71201 451.523 7.71201C457.753 7.71201 462.958 8.86401 467.139 11.168C471.406 13.472 475.118 17.0987 478.275 22.048L470.723 27.424C468.419 23.84 465.774 21.152 462.787 19.36C459.886 17.4827 456.003 16.544 451.139 16.544C445.678 16.544 441.497 17.7387 438.595 20.128C435.779 22.5173 434.371 26.4 434.371 31.776C434.371 36.128 435.523 39.4133 437.827 41.632C440.217 43.8507 444.014 45.6 449.219 46.88L455.875 48.544C460.057 49.568 463.598 50.8053 466.499 52.256C469.401 53.6213 471.747 55.328 473.539 57.376C475.417 59.424 476.739 61.856 477.507 64.672C478.361 67.4027 478.787 70.6027 478.787 74.272C478.787 82.72 476.27 89.1627 471.235 93.6C466.286 97.952 459.417 100.128 450.627 100.128ZM516.725 100.128C512.885 100.128 509.301 99.488 505.973 98.208C502.645 96.928 499.787 94.88 497.397 92.064C495.008 89.248 493.131 85.664 491.765 81.312C490.4 76.96 489.717 71.712 489.717 65.568C489.717 59.424 490.4 54.176 491.765 49.824C493.131 45.472 495.008 41.888 497.397 39.072C499.787 36.256 502.645 34.208 505.973 32.928C509.301 31.648 512.885 31.008 516.725 31.008C520.565 31.008 524.149 31.648 527.477 32.928C530.805 34.208 533.664 36.256 536.053 39.072C538.443 41.888 540.32 45.472 541.685 49.824C543.051 54.176 543.733 59.424 543.733 65.568C543.733 71.712 543.051 76.96 541.685 81.312C540.32 85.664 538.443 89.248 536.053 92.064C533.664 94.88 530.805 96.928 527.477 98.208C524.149 99.488 520.565 100.128 516.725 100.128ZM516.725 91.424C522.016 91.424 526.069 89.8453 528.885 86.688C531.787 83.5307 533.237 78.7093 533.237 72.224V58.912C533.237 52.4267 531.787 47.6053 528.885 44.448C526.069 41.2907 522.016 39.712 516.725 39.712C511.435 39.712 507.339 41.2907 504.437 44.448C501.621 47.6053 500.213 52.4267 500.213 58.912V72.224C500.213 78.7093 501.621 83.5307 504.437 86.688C507.339 89.8453 511.435 91.424 516.725 91.424ZM581.225 100.128C577.385 100.128 573.801 99.488 570.473 98.208C567.145 96.928 564.287 94.88 561.897 92.064C559.508 89.248 557.631 85.664 556.265 81.312C554.9 76.96 554.217 71.712 554.217 65.568C554.217 59.424 554.9 54.176 556.265 49.824C557.631 45.472 559.508 41.888 561.897 39.072C564.287 36.256 567.145 34.208 570.473 32.928C573.801 31.648 577.385 31.008 581.225 31.008C585.065 31.008 588.649 31.648 591.977 32.928C595.305 34.208 598.164 36.256 600.553 39.072C602.943 41.888 604.82 45.472 606.185 49.824C607.551 54.176 608.233 59.424 608.233 65.568C608.233 71.712 607.551 76.96 606.185 81.312C604.82 85.664 602.943 89.248 600.553 92.064C598.164 94.88 595.305 96.928 591.977 98.208C588.649 99.488 585.065 100.128 581.225 100.128ZM581.225 91.424C586.516 91.424 590.569 89.8453 593.385 86.688C596.287 83.5307 597.737 78.7093 597.737 72.224V58.912C597.737 52.4267 596.287 47.6053 593.385 44.448C590.569 41.2907 586.516 39.712 581.225 39.712C575.935 39.712 571.839 41.2907 568.937 44.448C566.121 47.6053 564.713 52.4267 564.713 58.912V72.224C564.713 78.7093 566.121 83.5307 568.937 86.688C571.839 89.8453 575.935 91.424 581.225 91.424ZM623.197 98.592V32.544H632.925V43.296H634.205C635.485 39.2 637.448 36.128 640.093 34.08C642.824 32.032 646.493 31.008 651.101 31.008C656.989 31.008 661.597 33.0133 664.925 37.024C668.339 41.0347 670.045 47.2213 670.045 55.584V98.592H660.317V56.224C660.317 50.9333 659.208 46.88 656.989 44.064C654.856 41.248 651.528 39.84 647.005 39.84C643.08 39.84 639.752 41.0347 637.021 43.424C634.291 45.8133 632.925 49.184 632.925 53.536V98.592H623.197Z" fill="black" fill-opacity="0.3"/>
</g>
<defs>
<filter id="filter0_g_459_4" x="0" y="0" width="674.045" height="129.728" filterUnits="userSpaceOnUse" color-interpolation-filters="sRGB">
<feFlood flood-opacity="0" result="BackgroundImageFix"/>
<feBlend mode="normal" in="SourceGraphic" in2="BackgroundImageFix" result="shape"/>
<feTurbulence type="fractalNoise" baseFrequency="2 2" numOctaves="3" seed="1118" />
<feDisplacementMap in="shape" scale="8" xChannelSelector="R" yChannelSelector="G" result="displacedImage" width="100%" height="100%" />
<feMerge result="effect1_texture_459_4">
<feMergeNode in="displacedImage"/>
</feMerge>
</filter>
</defs>
</svg>
