<svg width="342" height="69" viewBox="0 0 342 69" fill="none" xmlns="http://www.w3.org/2000/svg">
<g filter="url(#filter0_g_459_4)">
<path d="M20.1919 52.064C17.6745 52.064 15.4132 51.616 13.4079 50.72C11.4025 49.7813 9.69588 48.3733 8.28788 46.496C6.92254 44.6187 5.85588 42.2293 5.08788 39.328C4.36254 36.384 3.99988 32.928 3.99988 28.96C3.99988 24.992 4.36254 21.5573 5.08788 18.656C5.85588 15.712 6.92254 13.3013 8.28788 11.424C9.69588 9.54667 11.4025 8.16 13.4079 7.264C15.4132 6.32534 17.6745 5.856 20.1919 5.856C23.8612 5.856 26.8052 6.64534 29.0239 8.224C31.2425 9.76 32.9919 12.128 34.2719 15.328L30.1759 17.824C29.3652 15.392 28.1919 13.5573 26.6559 12.32C25.1625 11.04 23.0079 10.4 20.1919 10.4C16.7785 10.4 14.1332 11.6373 12.2559 14.112C10.4212 16.544 9.50388 19.8293 9.50388 23.968V33.952C9.50388 38.0907 10.4212 41.3973 12.2559 43.872C14.1332 46.304 16.7785 47.52 20.1919 47.52C23.0932 47.52 25.3332 46.8587 26.9119 45.536C28.4905 44.1707 29.6852 42.208 30.4959 39.648L34.5919 42.208C33.3119 45.408 31.4985 47.8613 29.1519 49.568C26.8479 51.232 23.8612 52.064 20.1919 52.064ZM52.6749 52.064C50.7549 52.064 48.9629 51.744 47.2989 51.104C45.6349 50.464 44.2055 49.44 43.0109 48.032C41.8162 46.624 40.8775 44.832 40.1949 42.656C39.5122 40.48 39.1709 37.856 39.1709 34.784C39.1709 31.712 39.5122 29.088 40.1949 26.912C40.8775 24.736 41.8162 22.944 43.0109 21.536C44.2055 20.128 45.6349 19.104 47.2989 18.464C48.9629 17.824 50.7549 17.504 52.6749 17.504C54.5949 17.504 56.3869 17.824 58.0509 18.464C59.7149 19.104 61.1442 20.128 62.3389 21.536C63.5335 22.944 64.4722 24.736 65.1549 26.912C65.8375 29.088 66.1789 31.712 66.1789 34.784C66.1789 37.856 65.8375 40.48 65.1549 42.656C64.4722 44.832 63.5335 46.624 62.3389 48.032C61.1442 49.44 59.7149 50.464 58.0509 51.104C56.3869 51.744 54.5949 52.064 52.6749 52.064ZM52.6749 47.712C55.3202 47.712 57.3469 46.9227 58.7549 45.344C60.2055 43.7653 60.9309 41.3547 60.9309 38.112V31.456C60.9309 28.2133 60.2055 25.8027 58.7549 24.224C57.3469 22.6453 55.3202 21.856 52.6749 21.856C50.0295 21.856 47.9815 22.6453 46.5309 24.224C45.1229 25.8027 44.4189 28.2133 44.4189 31.456V38.112C44.4189 41.3547 45.1229 43.7653 46.5309 45.344C47.9815 46.9227 50.0295 47.712 52.6749 47.712ZM73.6609 51.296V18.272H78.5249V23.648H79.1649C79.8049 21.6 80.7435 20.064 81.9809 19.04C83.2182 18.016 84.9675 17.504 87.2289 17.504C89.2769 17.504 91.0049 18.016 92.4129 19.04C93.8635 20.0213 94.9515 21.5573 95.6769 23.648H96.3169C96.9995 21.6 98.0662 20.064 99.5169 19.04C100.968 18.016 102.888 17.504 105.277 17.504C108.093 17.504 110.354 18.5067 112.061 20.512C113.768 22.5173 114.621 25.6107 114.621 29.792V51.296H109.757V30.112C109.757 27.4667 109.224 25.44 108.157 24.032C107.133 22.624 105.533 21.92 103.357 21.92C101.437 21.92 99.8155 22.5173 98.4929 23.712C97.2129 24.9067 96.5729 26.592 96.5729 28.768V51.296H91.7089V30.112C91.7089 27.4667 91.1755 25.44 90.1089 24.032C89.0849 22.624 87.4849 21.92 85.3089 21.92C83.3889 21.92 81.7675 22.5173 80.4449 23.712C79.1649 24.9067 78.5249 26.592 78.5249 28.768V51.296H73.6609ZM126.468 10.272C124.463 10.272 123.46 9.39734 123.46 7.648V6.624C123.46 4.87467 124.463 4 126.468 4C128.473 4 129.476 4.87467 129.476 6.624V7.648C129.476 9.39734 128.473 10.272 126.468 10.272ZM124.036 18.272H128.9V51.296H124.036V18.272ZM138.598 51.296V18.272H143.462V23.648H144.102C144.742 21.6 145.724 20.064 147.046 19.04C148.412 18.016 150.246 17.504 152.55 17.504C155.494 17.504 157.798 18.5067 159.462 20.512C161.169 22.5173 162.022 25.6107 162.022 29.792V51.296H157.158V30.112C157.158 27.4667 156.604 25.44 155.494 24.032C154.428 22.624 152.764 21.92 150.502 21.92C148.54 21.92 146.876 22.5173 145.51 23.712C144.145 24.9067 143.462 26.592 143.462 28.768V51.296H138.598ZM196.627 55.008C196.627 58.5067 195.432 61.024 193.043 62.56C190.696 64.096 187.048 64.864 182.099 64.864C177.363 64.864 173.971 64.16 171.923 62.752C169.918 61.344 168.915 59.3173 168.915 56.672C168.915 54.88 169.363 53.472 170.259 52.448C171.155 51.424 172.307 50.784 173.715 50.528V49.632C172.862 49.1627 172.179 48.5653 171.667 47.84C171.198 47.072 170.963 46.176 170.963 45.152C170.963 43.7867 171.347 42.6133 172.115 41.632C172.926 40.6507 174.227 40.0533 176.019 39.84V39.136C174.312 38.2827 172.968 37.024 171.987 35.36C171.048 33.6533 170.579 31.52 170.579 28.96C170.579 25.2053 171.603 22.368 173.651 20.448C175.699 18.528 178.451 17.568 181.907 17.568C183.955 17.568 185.811 17.9307 187.475 18.656V17.504C187.475 16.2667 187.752 15.3707 188.307 14.816C188.862 14.2613 189.758 13.984 190.995 13.984H195.411V18.272H189.715V20.064C190.824 21.0453 191.678 22.2613 192.275 23.712C192.915 25.1627 193.235 26.912 193.235 28.96C193.235 32.7147 192.211 35.552 190.163 37.472C188.115 39.392 185.363 40.352 181.907 40.352C180.883 40.352 179.838 40.2453 178.771 40.032C177.576 40.2453 176.659 40.736 176.019 41.504C175.422 42.2293 175.123 42.976 175.123 43.744C175.123 44.5973 175.422 45.2373 176.019 45.664C176.616 46.0907 177.598 46.304 178.963 46.304H186.195C189.907 46.304 192.574 47.0507 194.195 48.544C195.816 50.0373 196.627 52.192 196.627 55.008ZM192.083 55.328C192.083 53.8773 191.635 52.768 190.739 52C189.843 51.2747 188.307 50.912 186.131 50.912H176.083C175.102 51.3813 174.398 51.9787 173.971 52.704C173.587 53.4293 173.395 54.3467 173.395 55.456C173.395 57.12 173.907 58.4213 174.931 59.36C175.955 60.3413 177.598 60.832 179.859 60.832H184.083C186.728 60.832 188.712 60.384 190.035 59.488C191.4 58.6347 192.083 57.248 192.083 55.328ZM181.907 36.384C183.912 36.384 185.47 35.872 186.579 34.848C187.688 33.824 188.243 32.2453 188.243 30.112V27.744C188.243 25.6107 187.688 24.032 186.579 23.008C185.47 21.984 183.912 21.472 181.907 21.472C179.902 21.472 178.344 21.984 177.235 23.008C176.126 24.032 175.571 25.6107 175.571 27.744V30.112C175.571 32.2453 176.126 33.824 177.235 34.848C178.344 35.872 179.902 36.384 181.907 36.384ZM227.313 52.064C224.113 52.064 221.319 51.4027 218.929 50.08C216.54 48.7147 214.556 46.8373 212.977 44.448L216.689 41.376C218.055 43.3813 219.591 44.9387 221.297 46.048C223.004 47.1147 225.009 47.648 227.313 47.648C233.372 47.648 236.401 44.8107 236.401 39.136C236.401 36.832 235.847 35.0827 234.737 33.888C233.628 32.6933 231.708 31.7547 228.977 31.072L225.649 30.24C221.724 29.2587 218.823 27.8293 216.945 25.952C215.111 24.032 214.193 21.344 214.193 17.888C214.193 13.92 215.431 10.9333 217.905 8.928C220.38 6.88 223.665 5.856 227.761 5.856C230.876 5.856 233.479 6.432 235.569 7.584C237.703 8.736 239.559 10.5493 241.137 13.024L237.361 15.712C236.209 13.92 234.887 12.576 233.393 11.68C231.943 10.7413 230.001 10.272 227.569 10.272C224.839 10.272 222.748 10.8693 221.297 12.064C219.889 13.2587 219.185 15.2 219.185 17.888C219.185 20.064 219.761 21.7067 220.913 22.816C222.108 23.9253 224.007 24.8 226.609 25.44L229.937 26.272C232.028 26.784 233.799 27.4027 235.249 28.128C236.7 28.8107 237.873 29.664 238.769 30.688C239.708 31.712 240.369 32.928 240.753 34.336C241.18 35.7013 241.393 37.3013 241.393 39.136C241.393 43.36 240.135 46.5813 237.617 48.8C235.143 50.976 231.708 52.064 227.313 52.064ZM260.362 52.064C258.442 52.064 256.65 51.744 254.986 51.104C253.322 50.464 251.893 49.44 250.698 48.032C249.504 46.624 248.565 44.832 247.882 42.656C247.2 40.48 246.858 37.856 246.858 34.784C246.858 31.712 247.2 29.088 247.882 26.912C248.565 24.736 249.504 22.944 250.698 21.536C251.893 20.128 253.322 19.104 254.986 18.464C256.65 17.824 258.442 17.504 260.362 17.504C262.282 17.504 264.074 17.824 265.738 18.464C267.402 19.104 268.832 20.128 270.026 21.536C271.221 22.944 272.16 24.736 272.842 26.912C273.525 29.088 273.866 31.712 273.866 34.784C273.866 37.856 273.525 40.48 272.842 42.656C272.16 44.832 271.221 46.624 270.026 48.032C268.832 49.44 267.402 50.464 265.738 51.104C264.074 51.744 262.282 52.064 260.362 52.064ZM260.362 47.712C263.008 47.712 265.034 46.9227 266.442 45.344C267.893 43.7653 268.618 41.3547 268.618 38.112V31.456C268.618 28.2133 267.893 25.8027 266.442 24.224C265.034 22.6453 263.008 21.856 260.362 21.856C257.717 21.856 255.669 22.6453 254.218 24.224C252.81 25.8027 252.106 28.2133 252.106 31.456V38.112C252.106 41.3547 252.81 43.7653 254.218 45.344C255.669 46.9227 257.717 47.712 260.362 47.712ZM292.612 52.064C290.692 52.064 288.9 51.744 287.236 51.104C285.572 50.464 284.143 49.44 282.948 48.032C281.754 46.624 280.815 44.832 280.132 42.656C279.45 40.48 279.108 37.856 279.108 34.784C279.108 31.712 279.45 29.088 280.132 26.912C280.815 24.736 281.754 22.944 282.948 21.536C284.143 20.128 285.572 19.104 287.236 18.464C288.9 17.824 290.692 17.504 292.612 17.504C294.532 17.504 296.324 17.824 297.988 18.464C299.652 19.104 301.082 20.128 302.276 21.536C303.471 22.944 304.41 24.736 305.092 26.912C305.775 29.088 306.116 31.712 306.116 34.784C306.116 37.856 305.775 40.48 305.092 42.656C304.41 44.832 303.471 46.624 302.276 48.032C301.082 49.44 299.652 50.464 297.988 51.104C296.324 51.744 294.532 52.064 292.612 52.064ZM292.612 47.712C295.258 47.712 297.284 46.9227 298.692 45.344C300.143 43.7653 300.868 41.3547 300.868 38.112V31.456C300.868 28.2133 300.143 25.8027 298.692 24.224C297.284 22.6453 295.258 21.856 292.612 21.856C289.967 21.856 287.919 22.6453 286.468 24.224C285.06 25.8027 284.356 28.2133 284.356 31.456V38.112C284.356 41.3547 285.06 43.7653 286.468 45.344C287.919 46.9227 289.967 47.712 292.612 47.712ZM313.598 51.296V18.272H318.462V23.648H319.102C319.742 21.6 320.724 20.064 322.046 19.04C323.412 18.016 325.246 17.504 327.55 17.504C330.494 17.504 332.798 18.5067 334.462 20.512C336.169 22.5173 337.022 25.6107 337.022 29.792V51.296H332.158V30.112C332.158 27.4667 331.604 25.44 330.494 24.032C329.428 22.624 327.764 21.92 325.502 21.92C323.54 21.92 321.876 22.5173 320.51 23.712C319.145 24.9067 318.462 26.592 318.462 28.768V51.296H313.598Z" fill="black" fill-opacity="0.3"/>
</g>
<defs>
<filter id="filter0_g_459_4" x="0" y="0" width="341.022" height="68.864" filterUnits="userSpaceOnUse" color-interpolation-filters="sRGB">
<feFlood flood-opacity="0" result="BackgroundImageFix"/>
<feBlend mode="normal" in="SourceGraphic" in2="BackgroundImageFix" result="shape"/>
<feTurbulence type="fractalNoise" baseFrequency="4 4" numOctaves="3" seed="1118" />
<feDisplacementMap in="shape" scale="8" xChannelSelector="R" yChannelSelector="G" result="displacedImage" width="100%" height="100%" />
<feMerge result="effect1_texture_459_4">
<feMergeNode in="displacedImage"/>
</feMerge>
</filter>
</defs>
</svg>
