<svg width="708" height="146" viewBox="0 0 708 146" fill="none" xmlns="http://www.w3.org/2000/svg">
<g filter="url(#filter0_f_440_8)">
<path d="M40.832 117.536C29.9947 117.536 21.5893 113.824 15.616 106.4C9.64267 98.976 6.656 87.2853 6.656 71.328C6.656 55.3707 9.64267 43.68 15.616 36.256C21.5893 28.832 29.9947 25.12 40.832 25.12C51.6693 25.12 60.0747 28.832 66.048 36.256C72.0213 43.68 75.008 55.3707 75.008 71.328C75.008 87.2853 72.0213 98.976 66.048 106.4C60.0747 113.824 51.6693 117.536 40.832 117.536ZM40.832 108.448C48.256 108.448 53.9733 106.016 57.984 101.152C61.9947 96.2027 64 89.5893 64 81.312V61.344C64 53.0667 61.9947 46.496 57.984 41.632C53.9733 36.6827 48.256 34.208 40.832 34.208C33.408 34.208 27.6907 36.6827 23.68 41.632C19.6693 46.496 17.664 53.0667 17.664 61.344V81.312C17.664 89.5893 19.6693 96.2027 23.68 101.152C27.6907 106.016 33.408 108.448 40.832 108.448ZM91.353 21.28H101.081V60.704H102.361C103.641 56.352 105.689 53.2373 108.505 51.36C111.406 49.3973 114.905 48.416 119.001 48.416C122.926 48.416 126.382 49.2267 129.369 50.848C132.356 52.4693 134.873 54.7733 136.921 57.76C138.969 60.7467 140.505 64.3733 141.529 68.64C142.553 72.9067 143.065 77.6853 143.065 82.976C143.065 88.2667 142.553 93.0453 141.529 97.312C140.505 101.579 138.969 105.205 136.921 108.192C134.873 111.179 132.356 113.483 129.369 115.104C126.382 116.725 122.926 117.536 119.001 117.536C114.905 117.536 111.406 116.597 108.505 114.72C105.689 112.757 103.641 109.6 102.361 105.248H101.081V116H91.353V21.28ZM116.057 108.832C121.433 108.832 125.529 107.168 128.345 103.84C131.161 100.427 132.569 95.6907 132.569 89.632V76.32C132.569 70.2613 131.161 65.568 128.345 62.24C125.529 58.8267 121.433 57.12 116.057 57.12C114.009 57.12 112.046 57.4187 110.169 58.016C108.377 58.6133 106.798 59.4667 105.433 60.576C104.153 61.6853 103.086 63.008 102.233 64.544C101.465 66.08 101.081 67.7867 101.081 69.664V96.288C101.081 98.1653 101.465 99.872 102.233 101.408C103.086 102.944 104.153 104.267 105.433 105.376C106.798 106.485 108.377 107.339 110.169 107.936C112.046 108.533 114.009 108.832 116.057 108.832ZM158.478 49.952H168.206V129.056C168.206 133.408 167.182 136.565 165.134 138.528C163.171 140.576 160.014 141.6 155.662 141.6H148.75V133.024H158.478V49.952ZM163.342 33.952C159.331 33.952 157.326 32.2027 157.326 28.704V26.656C157.326 23.1573 159.331 21.408 163.342 21.408C167.353 21.408 169.358 23.1573 169.358 26.656V28.704C169.358 32.2027 167.353 33.952 163.342 33.952ZM210.131 117.536C206.291 117.536 202.707 116.896 199.379 115.616C196.051 114.336 193.192 112.288 190.803 109.472C188.414 106.656 186.536 103.072 185.171 98.72C183.806 94.368 183.123 89.12 183.123 82.976C183.123 76.832 183.806 71.584 185.171 67.232C186.536 62.88 188.414 59.296 190.803 56.48C193.192 53.664 196.051 51.616 199.379 50.336C202.707 49.056 206.291 48.416 210.131 48.416C213.971 48.416 217.47 49.056 220.627 50.336C223.87 51.616 226.6 53.664 228.819 56.48C231.038 59.296 232.744 62.88 233.939 67.232C235.219 71.584 235.859 76.832 235.859 82.976V85.408H193.491V89.632C193.491 96.1173 194.942 100.981 197.843 104.224C200.83 107.381 204.926 108.96 210.131 108.96C214.568 108.96 218.195 108.021 221.011 106.144C223.827 104.181 226.046 101.28 227.667 97.44L234.323 102.304C232.275 106.827 229.246 110.496 225.235 113.312C221.31 116.128 216.275 117.536 210.131 117.536ZM210.131 56.608C204.84 56.608 200.744 58.272 197.843 61.6C194.942 64.928 193.491 69.8347 193.491 76.32V77.984H225.491V76.32C225.491 63.1787 220.371 56.608 210.131 56.608ZM264.29 116C260.791 116 258.231 115.232 256.61 113.696C255.074 112.075 254.306 109.515 254.306 106.016V58.528H244.578V49.952H250.338C252.301 49.952 253.581 49.4827 254.178 48.544C254.861 47.52 255.202 46.0267 255.202 44.064V31.776H264.034V49.952H276.834V58.528H264.034V107.424H276.194V116H264.29ZM337.925 58.016L330.117 39.584H328.837L329.733 58.016V116H319.749V26.656H332.293L361.989 84.64L369.797 103.072H371.077L370.181 84.64V26.656H380.165V116H367.621L337.925 58.016ZM442.081 116C435.766 116 432.609 112.843 432.609 106.528V105.248H431.329C430.22 109.259 428.172 112.331 425.185 114.464C422.284 116.512 418.785 117.536 414.689 117.536C408.289 117.536 403.51 115.915 400.353 112.672C397.196 109.429 395.617 104.651 395.617 98.336C395.617 92.192 397.622 87.328 401.633 83.744C405.729 80.16 412.086 78.368 420.705 78.368H432.609V71.072C432.609 66.208 431.5 62.624 429.281 60.32C427.148 58.016 423.734 56.864 419.041 56.864C415.201 56.864 412.086 57.7173 409.697 59.424C407.393 61.0453 405.388 63.4347 403.681 66.592L397.921 61.216C399.628 57.632 402.358 54.6453 406.113 52.256C409.868 49.7813 414.305 48.544 419.425 48.544C426.934 48.544 432.609 50.3787 436.449 54.048C440.374 57.632 442.337 62.9653 442.337 70.048V107.424H448.993V116H442.081ZM417.121 109.088C419.34 109.088 421.388 108.704 423.265 107.936C425.228 107.168 426.892 106.187 428.257 104.992C429.622 103.712 430.689 102.304 431.457 100.768C432.225 99.1467 432.609 97.4827 432.609 95.776V85.792H420.449C415.329 85.792 411.574 86.6453 409.185 88.352C406.881 90.0587 405.729 92.5333 405.729 95.776V99.36C405.729 102.688 406.753 105.163 408.801 106.784C410.849 108.32 413.622 109.088 417.121 109.088ZM475.415 116C471.916 116 469.356 115.232 467.735 113.696C466.199 112.075 465.431 109.515 465.431 106.016V58.528H455.703V49.952H461.463C463.426 49.952 464.706 49.4827 465.303 48.544C465.986 47.52 466.327 46.0267 466.327 44.064V31.776H475.159V49.952H487.959V58.528H475.159V107.424H487.319V116H475.415ZM539.333 105.248H538.053C536.773 109.344 534.768 112.416 532.037 114.464C529.392 116.512 525.765 117.536 521.157 117.536C515.269 117.536 510.618 115.531 507.205 111.52C503.877 107.509 502.213 101.323 502.213 92.96V49.952H511.941V92.32C511.941 97.6107 513.008 101.664 515.141 104.48C517.36 107.296 520.73 108.704 525.253 108.704C529.178 108.704 532.506 107.509 535.237 105.12C537.968 102.731 539.333 99.36 539.333 95.008V49.952H549.061V116H539.333V105.248ZM568.478 116V49.952H578.206V62.24H579.486C580.595 58.4 582.473 55.4133 585.118 53.28C587.849 51.0613 591.39 49.952 595.742 49.952H599.326V59.808H592.926C588.318 59.808 584.691 60.832 582.046 62.88C579.486 64.928 578.206 68 578.206 72.096V116H568.478ZM633.256 117.536C629.416 117.536 625.832 116.896 622.504 115.616C619.176 114.336 616.317 112.288 613.928 109.472C611.539 106.656 609.661 103.072 608.296 98.72C606.931 94.368 606.248 89.12 606.248 82.976C606.248 76.832 606.931 71.584 608.296 67.232C609.661 62.88 611.539 59.296 613.928 56.48C616.317 53.664 619.176 51.616 622.504 50.336C625.832 49.056 629.416 48.416 633.256 48.416C637.096 48.416 640.595 49.056 643.752 50.336C646.995 51.616 649.725 53.664 651.944 56.48C654.163 59.296 655.869 62.88 657.064 67.232C658.344 71.584 658.984 76.832 658.984 82.976V85.408H616.616V89.632C616.616 96.1173 618.067 100.981 620.968 104.224C623.955 107.381 628.051 108.96 633.256 108.96C637.693 108.96 641.32 108.021 644.136 106.144C646.952 104.181 649.171 101.28 650.792 97.44L657.448 102.304C655.4 106.827 652.371 110.496 648.36 113.312C644.435 116.128 639.4 117.536 633.256 117.536ZM633.256 56.608C627.965 56.608 623.869 58.272 620.968 61.6C618.067 64.928 616.616 69.8347 616.616 76.32V77.984H648.616V76.32C648.616 63.1787 643.496 56.608 633.256 56.608ZM684.087 116C680.588 116 678.028 115.232 676.407 113.696C674.871 112.075 674.103 109.515 674.103 106.016V21.28H683.831V107.424H692.151V116H684.087Z" fill="white" fill-opacity="0.6"/>
</g>
<defs>
<filter id="filter0_f_440_8" x="2.65576" y="17.28" width="693.495" height="128.32" filterUnits="userSpaceOnUse" color-interpolation-filters="sRGB">
<feFlood flood-opacity="0" result="BackgroundImageFix"/>
<feBlend mode="normal" in="SourceGraphic" in2="BackgroundImageFix" result="shape"/>
<feGaussianBlur stdDeviation="2" result="effect1_foregroundBlur_440_8"/>
</filter>
</defs>
</svg>
