<svg width="686" height="121" viewBox="0 0 686 121" fill="none" xmlns="http://www.w3.org/2000/svg">
<g filter="url(#filter0_n_441_18)">
<path d="M34.1762 96.256C23.3389 96.256 14.9336 92.544 8.96024 85.12C2.98691 77.696 0.000238419 66.0053 0.000238419 50.048C0.000238419 34.0906 2.98691 22.4 8.96024 14.976C14.9336 7.55197 23.3389 3.83997 34.1762 3.83997C45.0136 3.83997 53.4189 7.55197 59.3922 14.976C65.3656 22.4 68.3522 34.0906 68.3522 50.048C68.3522 66.0053 65.3656 77.696 59.3922 85.12C53.4189 92.544 45.0136 96.256 34.1762 96.256ZM34.1762 87.168C41.6002 87.168 47.3176 84.736 51.3282 79.872C55.3389 74.9226 57.3442 68.3093 57.3442 60.032V40.064C57.3442 31.7866 55.3389 25.216 51.3282 20.352C47.3176 15.4026 41.6002 12.928 34.1762 12.928C26.7522 12.928 21.0349 15.4026 17.0242 20.352C13.0136 25.216 11.0082 31.7866 11.0082 40.064V60.032C11.0082 68.3093 13.0136 74.9226 17.0242 79.872C21.0349 84.736 26.7522 87.168 34.1762 87.168ZM84.6972 -3.05176e-05H94.4252V39.424H95.7052C96.9852 35.072 99.0332 31.9573 101.849 30.08C104.751 28.1173 108.249 27.136 112.345 27.136C116.271 27.136 119.727 27.9466 122.713 29.568C125.7 31.1893 128.217 33.4933 130.265 36.48C132.313 39.4666 133.849 43.0933 134.873 47.36C135.897 51.6266 136.409 56.4053 136.409 61.696C136.409 66.9866 135.897 71.7653 134.873 76.032C133.849 80.2986 132.313 83.9253 130.265 86.912C128.217 89.8986 125.7 92.2026 122.713 93.824C119.727 95.4453 116.271 96.256 112.345 96.256C108.249 96.256 104.751 95.3173 101.849 93.44C99.0332 91.4773 96.9852 88.32 95.7052 83.968H94.4252V94.72H84.6972V-3.05176e-05ZM109.401 87.552C114.777 87.552 118.873 85.888 121.689 82.56C124.505 79.1466 125.913 74.4106 125.913 68.352V55.04C125.913 48.9813 124.505 44.288 121.689 40.96C118.873 37.5466 114.777 35.84 109.401 35.84C107.353 35.84 105.391 36.1386 103.513 36.736C101.721 37.3333 100.143 38.1866 98.7772 39.296C97.4972 40.4053 96.4306 41.728 95.5772 43.264C94.8092 44.8 94.4252 46.5066 94.4252 48.384V75.008C94.4252 76.8853 94.8092 78.592 95.5772 80.128C96.4306 81.664 97.4972 82.9866 98.7772 84.096C100.143 85.2053 101.721 86.0586 103.513 86.656C105.391 87.2533 107.353 87.552 109.401 87.552ZM151.822 28.672H161.55V107.776C161.55 112.128 160.526 115.285 158.478 117.248C156.516 119.296 153.358 120.32 149.006 120.32H142.094V111.744H151.822V28.672ZM156.686 12.672C152.676 12.672 150.67 10.9226 150.67 7.42397V5.37597C150.67 1.8773 152.676 0.127968 156.686 0.127968C160.697 0.127968 162.702 1.8773 162.702 5.37597V7.42397C162.702 10.9226 160.697 12.672 156.686 12.672ZM203.475 96.256C199.635 96.256 196.051 95.616 192.723 94.336C189.395 93.056 186.537 91.008 184.147 88.192C181.758 85.376 179.881 81.792 178.515 77.44C177.15 73.088 176.467 67.84 176.467 61.696C176.467 55.552 177.15 50.304 178.515 45.952C179.881 41.6 181.758 38.016 184.147 35.2C186.537 32.384 189.395 30.336 192.723 29.056C196.051 27.776 199.635 27.136 203.475 27.136C207.315 27.136 210.814 27.776 213.971 29.056C217.214 30.336 219.945 32.384 222.163 35.2C224.382 38.016 226.089 41.6 227.283 45.952C228.563 50.304 229.203 55.552 229.203 61.696V64.128H186.835V68.352C186.835 74.8373 188.286 79.7013 191.187 82.944C194.174 86.1013 198.27 87.68 203.475 87.68C207.913 87.68 211.539 86.7413 214.355 84.864C217.171 82.9013 219.39 80 221.011 76.16L227.667 81.024C225.619 85.5466 222.59 89.216 218.579 92.032C214.654 94.848 209.619 96.256 203.475 96.256ZM203.475 35.328C198.185 35.328 194.089 36.992 191.187 40.32C188.286 43.648 186.835 48.5546 186.835 55.04V56.704H218.835V55.04C218.835 41.8986 213.715 35.328 203.475 35.328ZM257.634 94.72C254.136 94.72 251.576 93.952 249.954 92.416C248.418 90.7946 247.65 88.2346 247.65 84.736V37.248H237.922V28.672H243.682C245.645 28.672 246.925 28.2026 247.522 27.264C248.205 26.24 248.546 24.7466 248.546 22.784V10.496H257.378V28.672H270.178V37.248H257.378V86.144H269.538V94.72H257.634ZM331.269 36.736L323.461 18.304H322.181L323.077 36.736V94.72H313.093V5.37597H325.637L355.333 63.36L363.141 81.792H364.421L363.525 63.36V5.37597H373.509V94.72H360.965L331.269 36.736ZM435.425 94.72C429.111 94.72 425.953 91.5626 425.953 85.248V83.968H424.673C423.564 87.9786 421.516 91.0506 418.529 93.184C415.628 95.232 412.129 96.256 408.033 96.256C401.633 96.256 396.855 94.6346 393.697 91.392C390.54 88.1493 388.961 83.3706 388.961 77.056C388.961 70.912 390.967 66.048 394.977 62.464C399.073 58.88 405.431 57.088 414.049 57.088H425.953V49.792C425.953 44.928 424.844 41.344 422.625 39.04C420.492 36.736 417.079 35.584 412.385 35.584C408.545 35.584 405.431 36.4373 403.041 38.144C400.737 39.7653 398.732 42.1546 397.025 45.312L391.265 39.936C392.972 36.352 395.703 33.3653 399.457 30.976C403.212 28.5013 407.649 27.264 412.769 27.264C420.279 27.264 425.953 29.0986 429.793 32.768C433.719 36.352 435.681 41.6853 435.681 48.768V86.144H442.337V94.72H435.425ZM410.465 87.808C412.684 87.808 414.732 87.424 416.609 86.656C418.572 85.888 420.236 84.9066 421.601 83.712C422.967 82.432 424.033 81.024 424.801 79.488C425.569 77.8666 425.953 76.2026 425.953 74.496V64.512H413.793C408.673 64.512 404.919 65.3653 402.529 67.072C400.225 68.7786 399.073 71.2533 399.073 74.496V78.08C399.073 81.408 400.097 83.8826 402.145 85.504C404.193 87.04 406.967 87.808 410.465 87.808ZM468.759 94.72C465.261 94.72 462.701 93.952 461.079 92.416C459.543 90.7946 458.775 88.2346 458.775 84.736V37.248H449.047V28.672H454.807C456.77 28.672 458.05 28.2026 458.647 27.264C459.33 26.24 459.671 24.7466 459.671 22.784V10.496H468.503V28.672H481.303V37.248H468.503V86.144H480.663V94.72H468.759ZM532.677 83.968H531.397C530.117 88.064 528.112 91.136 525.381 93.184C522.736 95.232 519.109 96.256 514.501 96.256C508.613 96.256 503.963 94.2506 500.549 90.24C497.221 86.2293 495.557 80.0426 495.557 71.68V28.672H505.285V71.04C505.285 76.3306 506.352 80.384 508.485 83.2C510.704 86.016 514.075 87.424 518.597 87.424C522.523 87.424 525.851 86.2293 528.581 83.84C531.312 81.4506 532.677 78.08 532.677 73.728V28.672H542.405V94.72H532.677V83.968ZM561.822 94.72V28.672H571.55V40.96H572.83C573.94 37.12 575.817 34.1333 578.462 32C581.193 29.7813 584.734 28.672 589.086 28.672H592.67V38.528H586.27C581.662 38.528 578.036 39.552 575.39 41.6C572.83 43.648 571.55 46.72 571.55 50.816V94.72H561.822ZM626.6 96.256C622.76 96.256 619.176 95.616 615.848 94.336C612.52 93.056 609.662 91.008 607.272 88.192C604.883 85.376 603.006 81.792 601.64 77.44C600.275 73.088 599.592 67.84 599.592 61.696C599.592 55.552 600.275 50.304 601.64 45.952C603.006 41.6 604.883 38.016 607.272 35.2C609.662 32.384 612.52 30.336 615.848 29.056C619.176 27.776 622.76 27.136 626.6 27.136C630.44 27.136 633.939 27.776 637.096 29.056C640.339 30.336 643.07 32.384 645.288 35.2C647.507 38.016 649.214 41.6 650.408 45.952C651.688 50.304 652.328 55.552 652.328 61.696V64.128H609.96V68.352C609.96 74.8373 611.411 79.7013 614.312 82.944C617.299 86.1013 621.395 87.68 626.6 87.68C631.038 87.68 634.664 86.7413 637.48 84.864C640.296 82.9013 642.515 80 644.136 76.16L650.792 81.024C648.744 85.5466 645.715 89.216 641.704 92.032C637.779 94.848 632.744 96.256 626.6 96.256ZM626.6 35.328C621.31 35.328 617.214 36.992 614.312 40.32C611.411 43.648 609.96 48.5546 609.96 55.04V56.704H641.96V55.04C641.96 41.8986 636.84 35.328 626.6 35.328ZM677.431 94.72C673.933 94.72 671.373 93.952 669.751 92.416C668.215 90.7946 667.447 88.2346 667.447 84.736V-3.05176e-05H677.175V86.144H685.495V94.72H677.431Z" fill="black" fill-opacity="0.3"/>
</g>
<defs>
<filter id="filter0_n_441_18" x="0" y="0" width="685.495" height="120.32" filterUnits="userSpaceOnUse" color-interpolation-filters="sRGB">
<feFlood flood-opacity="0" result="BackgroundImageFix"/>
<feBlend mode="normal" in="SourceGraphic" in2="BackgroundImageFix" result="shape"/>
<feTurbulence type="fractalNoise" baseFrequency="2 2" stitchTiles="stitch" numOctaves="3" result="noise" seed="5671" />
<feColorMatrix in="noise" type="luminanceToAlpha" result="alphaNoise" />
<feComponentTransfer in="alphaNoise" result="coloredNoise1">
<feFuncA type="discrete" tableValues="1 1 1 1 1 1 1 1 1 1 1 1 1 1 1 1 1 1 1 1 1 1 1 1 1 1 1 1 1 1 1 1 1 1 1 1 1 1 1 1 1 1 1 1 1 1 1 1 1 1 1 0 0 0 0 0 0 0 0 0 0 0 0 0 0 0 0 0 0 0 0 0 0 0 0 0 0 0 0 0 0 0 0 0 0 0 0 0 0 0 0 0 0 0 0 0 0 0 0 0 "/>
</feComponentTransfer>
<feComposite operator="in" in2="shape" in="coloredNoise1" result="noise1Clipped" />
<feFlood flood-color="rgba(0, 0, 0, 0.25)" result="color1Flood" />
<feComposite operator="in" in2="noise1Clipped" in="color1Flood" result="color1" />
<feMerge result="effect1_noise_441_18">
<feMergeNode in="shape" />
<feMergeNode in="color1" />
</feMerge>
</filter>
</defs>
</svg>
