<svg width="266" height="54" viewBox="0 0 266 54" fill="none" xmlns="http://www.w3.org/2000/svg">
<g filter="url(#filter0_g_456_7)">
<path d="M16.8159 40.096C12.7519 40.096 9.59991 38.704 7.35991 35.92C5.11991 33.136 3.99991 28.752 3.99991 22.768C3.99991 16.784 5.11991 12.4 7.35991 9.61602C9.59991 6.83202 12.7519 5.44002 16.8159 5.44002C20.8799 5.44002 24.0319 6.83202 26.2719 9.61602C28.5119 12.4 29.6319 16.784 29.6319 22.768C29.6319 28.752 28.5119 33.136 26.2719 35.92C24.0319 38.704 20.8799 40.096 16.8159 40.096ZM16.8159 36.688C19.5999 36.688 21.7439 35.776 23.2479 33.952C24.7519 32.096 25.5039 29.616 25.5039 26.512V19.024C25.5039 15.92 24.7519 13.456 23.2479 11.632C21.7439 9.77602 19.5999 8.84802 16.8159 8.84802C14.0319 8.84802 11.8879 9.77602 10.3839 11.632C8.87991 13.456 8.12791 15.92 8.12791 19.024V26.512C8.12791 29.616 8.87991 32.096 10.3839 33.952C11.8879 35.776 14.0319 36.688 16.8159 36.688ZM35.7613 4.00002H39.4093V18.784H39.8893C40.3693 17.152 41.1373 15.984 42.1933 15.28C43.2813 14.544 44.5933 14.176 46.1293 14.176C47.6013 14.176 48.8973 14.48 50.0173 15.088C51.1373 15.696 52.0813 16.56 52.8493 17.68C53.6173 18.8 54.1933 20.16 54.5773 21.76C54.9613 23.36 55.1533 25.152 55.1533 27.136C55.1533 29.12 54.9613 30.912 54.5773 32.512C54.1933 34.112 53.6173 35.472 52.8493 36.592C52.0813 37.712 51.1373 38.576 50.0173 39.184C48.8973 39.792 47.6013 40.096 46.1293 40.096C44.5933 40.096 43.2813 39.744 42.1933 39.04C41.1373 38.304 40.3693 37.12 39.8893 35.488H39.4093V39.52H35.7613V4.00002ZM45.0253 36.832C47.0413 36.832 48.5773 36.208 49.6333 34.96C50.6893 33.68 51.2173 31.904 51.2173 29.632V24.64C51.2173 22.368 50.6893 20.608 49.6333 19.36C48.5773 18.08 47.0413 17.44 45.0253 17.44C44.2573 17.44 43.5213 17.552 42.8173 17.776C42.1453 18 41.5533 18.32 41.0413 18.736C40.5613 19.152 40.1613 19.648 39.8413 20.224C39.5533 20.8 39.4093 21.44 39.4093 22.144V32.128C39.4093 32.832 39.5533 33.472 39.8413 34.048C40.1613 34.624 40.5613 35.12 41.0413 35.536C41.5533 35.952 42.1453 36.272 42.8173 36.496C43.5213 36.72 44.2573 36.832 45.0253 36.832ZM60.9332 14.752H64.5812V44.416C64.5812 46.048 64.1972 47.232 63.4292 47.968C62.6932 48.736 61.5092 49.12 59.8772 49.12H57.2852V45.904H60.9332V14.752ZM62.7572 8.75202C61.2532 8.75202 60.5012 8.09602 60.5012 6.78402V6.01602C60.5012 4.70402 61.2532 4.04802 62.7572 4.04802C64.2612 4.04802 65.0132 4.70402 65.0132 6.01602V6.78402C65.0132 8.09602 64.2612 8.75202 62.7572 8.75202ZM80.303 40.096C78.863 40.096 77.519 39.856 76.271 39.376C75.023 38.896 73.951 38.128 73.055 37.072C72.159 36.016 71.455 34.672 70.943 33.04C70.431 31.408 70.175 29.44 70.175 27.136C70.175 24.832 70.431 22.864 70.943 21.232C71.455 19.6 72.159 18.256 73.055 17.2C73.951 16.144 75.023 15.376 76.271 14.896C77.519 14.416 78.863 14.176 80.303 14.176C81.743 14.176 83.055 14.416 84.239 14.896C85.455 15.376 86.479 16.144 87.311 17.2C88.143 18.256 88.783 19.6 89.231 21.232C89.711 22.864 89.951 24.832 89.951 27.136V28.048H74.063V29.632C74.063 32.064 74.607 33.888 75.695 35.104C76.815 36.288 78.351 36.88 80.303 36.88C81.967 36.88 83.327 36.528 84.383 35.824C85.439 35.088 86.271 34 86.879 32.56L89.375 34.384C88.607 36.08 87.471 37.456 85.967 38.512C84.495 39.568 82.607 40.096 80.303 40.096ZM80.303 17.248C78.319 17.248 76.783 17.872 75.695 19.12C74.607 20.368 74.063 22.208 74.063 24.64V25.264H86.063V24.64C86.063 19.712 84.143 17.248 80.303 17.248ZM100.613 39.52C99.3007 39.52 98.3407 39.232 97.7327 38.656C97.1567 38.048 96.8687 37.088 96.8687 35.776V17.968H93.2207V14.752H95.3807C96.1167 14.752 96.5967 14.576 96.8207 14.224C97.0767 13.84 97.2047 13.28 97.2047 12.544V7.93602H100.517V14.752H105.317V17.968H100.517V36.304H105.077V39.52H100.613ZM128.226 17.776L125.298 10.864H124.818L125.154 17.776V39.52H121.41V6.01602H126.114L137.25 27.76L140.178 34.672H140.658L140.322 27.76V6.01602H144.066V39.52H139.362L128.226 17.776ZM167.284 39.52C164.916 39.52 163.732 38.336 163.732 35.968V35.488H163.252C162.836 36.992 162.068 38.144 160.948 38.944C159.86 39.712 158.548 40.096 157.012 40.096C154.612 40.096 152.82 39.488 151.636 38.272C150.452 37.056 149.86 35.264 149.86 32.896C149.86 30.592 150.612 28.768 152.116 27.424C153.652 26.08 156.036 25.408 159.268 25.408H163.732V22.672C163.732 20.848 163.316 19.504 162.484 18.64C161.684 17.776 160.404 17.344 158.644 17.344C157.204 17.344 156.036 17.664 155.14 18.304C154.276 18.912 153.524 19.808 152.884 20.992L150.724 18.976C151.364 17.632 152.388 16.512 153.796 15.616C155.204 14.688 156.868 14.224 158.788 14.224C161.604 14.224 163.732 14.912 165.172 16.288C166.644 17.632 167.38 19.632 167.38 22.288V36.304H169.876V39.52H167.284ZM157.924 36.928C158.756 36.928 159.524 36.784 160.228 36.496C160.964 36.208 161.588 35.84 162.1 35.392C162.612 34.912 163.012 34.384 163.3 33.808C163.588 33.2 163.732 32.576 163.732 31.936V28.192H159.172C157.252 28.192 155.844 28.512 154.948 29.152C154.084 29.792 153.652 30.72 153.652 31.936V33.28C153.652 34.528 154.036 35.456 154.804 36.064C155.572 36.64 156.612 36.928 157.924 36.928ZM179.785 39.52C178.473 39.52 177.513 39.232 176.905 38.656C176.329 38.048 176.041 37.088 176.041 35.776V17.968H172.393V14.752H174.553C175.289 14.752 175.769 14.576 175.993 14.224C176.249 13.84 176.377 13.28 176.377 12.544V7.93602H179.689V14.752H184.489V17.968H179.689V36.304H184.249V39.52H179.785ZM203.754 35.488H203.274C202.794 37.024 202.042 38.176 201.018 38.944C200.026 39.712 198.666 40.096 196.938 40.096C194.73 40.096 192.986 39.344 191.706 37.84C190.458 36.336 189.834 34.016 189.834 30.88V14.752H193.482V30.64C193.482 32.624 193.882 34.144 194.682 35.2C195.514 36.256 196.778 36.784 198.474 36.784C199.946 36.784 201.194 36.336 202.218 35.44C203.242 34.544 203.754 33.28 203.754 31.648V14.752H207.402V39.52H203.754V35.488ZM214.683 39.52V14.752H218.331V19.36H218.811C219.227 17.92 219.931 16.8 220.923 16C221.947 15.168 223.275 14.752 224.907 14.752H226.251V18.448H223.851C222.123 18.448 220.763 18.832 219.771 19.6C218.811 20.368 218.331 21.52 218.331 23.056V39.52H214.683ZM238.975 40.096C237.535 40.096 236.191 39.856 234.943 39.376C233.695 38.896 232.623 38.128 231.727 37.072C230.831 36.016 230.127 34.672 229.615 33.04C229.103 31.408 228.847 29.44 228.847 27.136C228.847 24.832 229.103 22.864 229.615 21.232C230.127 19.6 230.831 18.256 231.727 17.2C232.623 16.144 233.695 15.376 234.943 14.896C236.191 14.416 237.535 14.176 238.975 14.176C240.415 14.176 241.727 14.416 242.911 14.896C244.127 15.376 245.151 16.144 245.983 17.2C246.815 18.256 247.455 19.6 247.903 21.232C248.383 22.864 248.623 24.832 248.623 27.136V28.048H232.735V29.632C232.735 32.064 233.279 33.888 234.367 35.104C235.487 36.288 237.023 36.88 238.975 36.88C240.639 36.88 241.999 36.528 243.055 35.824C244.111 35.088 244.943 34 245.551 32.56L248.047 34.384C247.279 36.08 246.143 37.456 244.639 38.512C243.167 39.568 241.279 40.096 238.975 40.096ZM238.975 17.248C236.991 17.248 235.455 17.872 234.367 19.12C233.279 20.368 232.735 22.208 232.735 24.64V25.264H244.735V24.64C244.735 19.712 242.815 17.248 238.975 17.248ZM258.037 39.52C256.725 39.52 255.765 39.232 255.157 38.656C254.581 38.048 254.293 37.088 254.293 35.776V4.00002H257.941V36.304H261.061V39.52H258.037Z" fill="black" fill-opacity="0.3"/>
</g>
<defs>
<filter id="filter0_g_456_7" x="0" y="0" width="265.061" height="53.12" filterUnits="userSpaceOnUse" color-interpolation-filters="sRGB">
<feFlood flood-opacity="0" result="BackgroundImageFix"/>
<feBlend mode="normal" in="SourceGraphic" in2="BackgroundImageFix" result="shape"/>
<feTurbulence type="fractalNoise" baseFrequency="2 2" numOctaves="3" seed="1118" />
<feDisplacementMap in="shape" scale="8" xChannelSelector="R" yChannelSelector="G" result="displacedImage" width="100%" height="100%" />
<feMerge result="effect1_texture_456_7">
<feMergeNode in="displacedImage"/>
</feMerge>
</filter>
</defs>
</svg>
