<svg width="694" height="129" viewBox="0 0 694 129" fill="none" xmlns="http://www.w3.org/2000/svg">
<g filter="url(#filter0_f_446_4)">
<path d="M38.1762 100.256C27.3389 100.256 18.9336 96.544 12.9602 89.12C6.98691 81.696 4.00024 70.0053 4.00024 54.048C4.00024 38.0907 6.98691 26.4 12.9602 18.976C18.9336 11.552 27.3389 7.84 38.1762 7.84C49.0136 7.84 57.4189 11.552 63.3922 18.976C69.3656 26.4 72.3522 38.0907 72.3522 54.048C72.3522 70.0053 69.3656 81.696 63.3922 89.12C57.4189 96.544 49.0136 100.256 38.1762 100.256ZM38.1762 91.168C45.6002 91.168 51.3176 88.736 55.3282 83.872C59.3389 78.9227 61.3442 72.3093 61.3442 64.032V44.064C61.3442 35.7867 59.3389 29.216 55.3282 24.352C51.3176 19.4027 45.6002 16.928 38.1762 16.928C30.7522 16.928 25.0349 19.4027 21.0242 24.352C17.0136 29.216 15.0082 35.7867 15.0082 44.064V64.032C15.0082 72.3093 17.0136 78.9227 21.0242 83.872C25.0349 88.736 30.7522 91.168 38.1762 91.168ZM88.6972 4H98.4252V43.424H99.7052C100.985 39.072 103.033 35.9573 105.849 34.08C108.751 32.1173 112.249 31.136 116.345 31.136C120.271 31.136 123.727 31.9467 126.713 33.568C129.7 35.1893 132.217 37.4933 134.265 40.48C136.313 43.4667 137.849 47.0933 138.873 51.36C139.897 55.6267 140.409 60.4053 140.409 65.696C140.409 70.9867 139.897 75.7653 138.873 80.032C137.849 84.2987 136.313 87.9253 134.265 90.912C132.217 93.8987 129.7 96.2027 126.713 97.824C123.727 99.4453 120.271 100.256 116.345 100.256C112.249 100.256 108.751 99.3173 105.849 97.44C103.033 95.4773 100.985 92.32 99.7052 87.968H98.4252V98.72H88.6972V4ZM113.401 91.552C118.777 91.552 122.873 89.888 125.689 86.56C128.505 83.1467 129.913 78.4107 129.913 72.352V59.04C129.913 52.9813 128.505 48.288 125.689 44.96C122.873 41.5467 118.777 39.84 113.401 39.84C111.353 39.84 109.391 40.1387 107.513 40.736C105.721 41.3333 104.143 42.1867 102.777 43.296C101.497 44.4053 100.431 45.728 99.5772 47.264C98.8092 48.8 98.4252 50.5067 98.4252 52.384V79.008C98.4252 80.8853 98.8092 82.592 99.5772 84.128C100.431 85.664 101.497 86.9867 102.777 88.096C104.143 89.2053 105.721 90.0587 107.513 90.656C109.391 91.2533 111.353 91.552 113.401 91.552ZM155.822 32.672H165.55V111.776C165.55 116.128 164.526 119.285 162.478 121.248C160.516 123.296 157.358 124.32 153.006 124.32H146.094V115.744H155.822V32.672ZM160.686 16.672C156.676 16.672 154.67 14.9227 154.67 11.424V9.376C154.67 5.87733 156.676 4.128 160.686 4.128C164.697 4.128 166.702 5.87733 166.702 9.376V11.424C166.702 14.9227 164.697 16.672 160.686 16.672ZM207.475 100.256C203.635 100.256 200.051 99.616 196.723 98.336C193.395 97.056 190.537 95.008 188.147 92.192C185.758 89.376 183.881 85.792 182.515 81.44C181.15 77.088 180.467 71.84 180.467 65.696C180.467 59.552 181.15 54.304 182.515 49.952C183.881 45.6 185.758 42.016 188.147 39.2C190.537 36.384 193.395 34.336 196.723 33.056C200.051 31.776 203.635 31.136 207.475 31.136C211.315 31.136 214.814 31.776 217.971 33.056C221.214 34.336 223.945 36.384 226.163 39.2C228.382 42.016 230.089 45.6 231.283 49.952C232.563 54.304 233.203 59.552 233.203 65.696V68.128H190.835V72.352C190.835 78.8373 192.286 83.7013 195.187 86.944C198.174 90.1013 202.27 91.68 207.475 91.68C211.913 91.68 215.539 90.7413 218.355 88.864C221.171 86.9013 223.39 84 225.011 80.16L231.667 85.024C229.619 89.5467 226.59 93.216 222.579 96.032C218.654 98.848 213.619 100.256 207.475 100.256ZM207.475 39.328C202.185 39.328 198.089 40.992 195.187 44.32C192.286 47.648 190.835 52.5547 190.835 59.04V60.704H222.835V59.04C222.835 45.8987 217.715 39.328 207.475 39.328ZM261.634 98.72C258.136 98.72 255.576 97.952 253.954 96.416C252.418 94.7947 251.65 92.2347 251.65 88.736V41.248H241.922V32.672H247.682C249.645 32.672 250.925 32.2027 251.522 31.264C252.205 30.24 252.546 28.7467 252.546 26.784V14.496H261.378V32.672H274.178V41.248H261.378V90.144H273.538V98.72H261.634ZM335.269 40.736L327.461 22.304H326.181L327.077 40.736V98.72H317.093V9.376H329.637L359.333 67.36L367.141 85.792H368.421L367.525 67.36V9.376H377.509V98.72H364.965L335.269 40.736ZM439.425 98.72C433.111 98.72 429.953 95.5627 429.953 89.248V87.968H428.673C427.564 91.9787 425.516 95.0507 422.529 97.184C419.628 99.232 416.129 100.256 412.033 100.256C405.633 100.256 400.855 98.6347 397.697 95.392C394.54 92.1493 392.961 87.3707 392.961 81.056C392.961 74.912 394.967 70.048 398.977 66.464C403.073 62.88 409.431 61.088 418.049 61.088H429.953V53.792C429.953 48.928 428.844 45.344 426.625 43.04C424.492 40.736 421.079 39.584 416.385 39.584C412.545 39.584 409.431 40.4373 407.041 42.144C404.737 43.7653 402.732 46.1547 401.025 49.312L395.265 43.936C396.972 40.352 399.703 37.3653 403.457 34.976C407.212 32.5013 411.649 31.264 416.769 31.264C424.279 31.264 429.953 33.0987 433.793 36.768C437.719 40.352 439.681 45.6853 439.681 52.768V90.144H446.337V98.72H439.425ZM414.465 91.808C416.684 91.808 418.732 91.424 420.609 90.656C422.572 89.888 424.236 88.9067 425.601 87.712C426.967 86.432 428.033 85.024 428.801 83.488C429.569 81.8667 429.953 80.2027 429.953 78.496V68.512H417.793C412.673 68.512 408.919 69.3653 406.529 71.072C404.225 72.7787 403.073 75.2533 403.073 78.496V82.08C403.073 85.408 404.097 87.8827 406.145 89.504C408.193 91.04 410.967 91.808 414.465 91.808ZM472.759 98.72C469.261 98.72 466.701 97.952 465.079 96.416C463.543 94.7947 462.775 92.2347 462.775 88.736V41.248H453.047V32.672H458.807C460.77 32.672 462.05 32.2027 462.647 31.264C463.33 30.24 463.671 28.7467 463.671 26.784V14.496H472.503V32.672H485.303V41.248H472.503V90.144H484.663V98.72H472.759ZM536.677 87.968H535.397C534.117 92.064 532.112 95.136 529.381 97.184C526.736 99.232 523.109 100.256 518.501 100.256C512.613 100.256 507.963 98.2507 504.549 94.24C501.221 90.2293 499.557 84.0427 499.557 75.68V32.672H509.285V75.04C509.285 80.3307 510.352 84.384 512.485 87.2C514.704 90.016 518.075 91.424 522.597 91.424C526.523 91.424 529.851 90.2293 532.581 87.84C535.312 85.4507 536.677 82.08 536.677 77.728V32.672H546.405V98.72H536.677V87.968ZM565.822 98.72V32.672H575.55V44.96H576.83C577.94 41.12 579.817 38.1333 582.462 36C585.193 33.7813 588.734 32.672 593.086 32.672H596.67V42.528H590.27C585.662 42.528 582.036 43.552 579.39 45.6C576.83 47.648 575.55 50.72 575.55 54.816V98.72H565.822ZM630.6 100.256C626.76 100.256 623.176 99.616 619.848 98.336C616.52 97.056 613.662 95.008 611.272 92.192C608.883 89.376 607.006 85.792 605.64 81.44C604.275 77.088 603.592 71.84 603.592 65.696C603.592 59.552 604.275 54.304 605.64 49.952C607.006 45.6 608.883 42.016 611.272 39.2C613.662 36.384 616.52 34.336 619.848 33.056C623.176 31.776 626.76 31.136 630.6 31.136C634.44 31.136 637.939 31.776 641.096 33.056C644.339 34.336 647.07 36.384 649.288 39.2C651.507 42.016 653.214 45.6 654.408 49.952C655.688 54.304 656.328 59.552 656.328 65.696V68.128H613.96V72.352C613.96 78.8373 615.411 83.7013 618.312 86.944C621.299 90.1013 625.395 91.68 630.6 91.68C635.038 91.68 638.664 90.7413 641.48 88.864C644.296 86.9013 646.515 84 648.136 80.16L654.792 85.024C652.744 89.5467 649.715 93.216 645.704 96.032C641.779 98.848 636.744 100.256 630.6 100.256ZM630.6 39.328C625.31 39.328 621.214 40.992 618.312 44.32C615.411 47.648 613.96 52.5547 613.96 59.04V60.704H645.96V59.04C645.96 45.8987 640.84 39.328 630.6 39.328ZM681.431 98.72C677.933 98.72 675.373 97.952 673.751 96.416C672.215 94.7947 671.447 92.2347 671.447 88.736V4H681.175V90.144H689.495V98.72H681.431Z" fill="black" fill-opacity="0.3"/>
</g>
<defs>
<filter id="filter0_f_446_4" x="0" y="0" width="693.495" height="128.32" filterUnits="userSpaceOnUse" color-interpolation-filters="sRGB">
<feFlood flood-opacity="0" result="BackgroundImageFix"/>
<feBlend mode="normal" in="SourceGraphic" in2="BackgroundImageFix" result="shape"/>
<feGaussianBlur stdDeviation="2" result="effect1_foregroundBlur_446_4"/>
</filter>
</defs>
</svg>
