<svg width="201" height="42" viewBox="0 0 201 42" fill="none" xmlns="http://www.w3.org/2000/svg">
<g filter="url(#filter0_f_472_39)">
<path d="M13.6119 31.072C10.5639 31.072 8.19993 30.028 6.51993 27.94C4.83993 25.852 3.99993 22.564 3.99993 18.076C3.99993 13.588 4.83993 10.3 6.51993 8.21201C8.19993 6.12401 10.5639 5.08001 13.6119 5.08001C16.6599 5.08001 19.0239 6.12401 20.7039 8.21201C22.3839 10.3 23.2239 13.588 23.2239 18.076C23.2239 22.564 22.3839 25.852 20.7039 27.94C19.0239 30.028 16.6599 31.072 13.6119 31.072ZM13.6119 28.516C15.6999 28.516 17.3079 27.832 18.4359 26.464C19.5639 25.072 20.1279 23.212 20.1279 20.884V15.268C20.1279 12.94 19.5639 11.092 18.4359 9.72401C17.3079 8.33201 15.6999 7.63601 13.6119 7.63601C11.5239 7.63601 9.91593 8.33201 8.78793 9.72401C7.65993 11.092 7.09593 12.94 7.09593 15.268V20.884C7.09593 23.212 7.65993 25.072 8.78793 26.464C9.91593 27.832 11.5239 28.516 13.6119 28.516ZM27.821 4.00001H30.557V15.088H30.917C31.277 13.864 31.853 12.988 32.645 12.46C33.461 11.908 34.445 11.632 35.597 11.632C36.701 11.632 37.673 11.86 38.513 12.316C39.353 12.772 40.061 13.42 40.637 14.26C41.213 15.1 41.645 16.12 41.933 17.32C42.221 18.52 42.365 19.864 42.365 21.352C42.365 22.84 42.221 24.184 41.933 25.384C41.645 26.584 41.213 27.604 40.637 28.444C40.061 29.284 39.353 29.932 38.513 30.388C37.673 30.844 36.701 31.072 35.597 31.072C34.445 31.072 33.461 30.808 32.645 30.28C31.853 29.728 31.277 28.84 30.917 27.616H30.557V30.64H27.821V4.00001ZM34.769 28.624C36.281 28.624 37.433 28.156 38.225 27.22C39.017 26.26 39.413 24.928 39.413 23.224V19.48C39.413 17.776 39.017 16.456 38.225 15.52C37.433 14.56 36.281 14.08 34.769 14.08C34.193 14.08 33.641 14.164 33.113 14.332C32.609 14.5 32.165 14.74 31.781 15.052C31.421 15.364 31.121 15.736 30.881 16.168C30.665 16.6 30.557 17.08 30.557 17.608V25.096C30.557 25.624 30.665 26.104 30.881 26.536C31.121 26.968 31.421 27.34 31.781 27.652C32.165 27.964 32.609 28.204 33.113 28.372C33.641 28.54 34.193 28.624 34.769 28.624ZM46.6999 12.064H49.4359V34.312C49.4359 35.536 49.1479 36.424 48.5719 36.976C48.0199 37.552 47.1319 37.84 45.9079 37.84H43.9639V35.428H46.6999V12.064ZM48.0679 7.56401C46.9399 7.56401 46.3759 7.07201 46.3759 6.08801V5.51201C46.3759 4.52801 46.9399 4.03601 48.0679 4.03601C49.1959 4.03601 49.7599 4.52801 49.7599 5.51201V6.08801C49.7599 7.07201 49.1959 7.56401 48.0679 7.56401ZM61.2273 31.072C60.1473 31.072 59.1393 30.892 58.2033 30.532C57.2673 30.172 56.4633 29.596 55.7913 28.804C55.1193 28.012 54.5913 27.004 54.2073 25.78C53.8233 24.556 53.6313 23.08 53.6313 21.352C53.6313 19.624 53.8233 18.148 54.2073 16.924C54.5913 15.7 55.1193 14.692 55.7913 13.9C56.4633 13.108 57.2673 12.532 58.2033 12.172C59.1393 11.812 60.1473 11.632 61.2273 11.632C62.3073 11.632 63.2913 11.812 64.1793 12.172C65.0913 12.532 65.8593 13.108 66.4833 13.9C67.1073 14.692 67.5873 15.7 67.9233 16.924C68.2833 18.148 68.4633 19.624 68.4633 21.352V22.036H56.5473V23.224C56.5473 25.048 56.9553 26.416 57.7713 27.328C58.6113 28.216 59.7633 28.66 61.2273 28.66C62.4753 28.66 63.4953 28.396 64.2873 27.868C65.0793 27.316 65.7033 26.5 66.1593 25.42L68.0313 26.788C67.4553 28.06 66.6033 29.092 65.4753 29.884C64.3713 30.676 62.9553 31.072 61.2273 31.072ZM61.2273 13.936C59.7393 13.936 58.5873 14.404 57.7713 15.34C56.9553 16.276 56.5473 17.656 56.5473 19.48V19.948H65.5473V19.48C65.5473 15.784 64.1073 13.936 61.2273 13.936ZM76.4595 30.64C75.4755 30.64 74.7555 30.424 74.2995 29.992C73.8675 29.536 73.6515 28.816 73.6515 27.832V14.476H70.9155V12.064H72.5355C73.0875 12.064 73.4475 11.932 73.6155 11.668C73.8075 11.38 73.9035 10.96 73.9035 10.408V6.95201H76.3875V12.064H79.9875V14.476H76.3875V28.228H79.8075V30.64H76.4595ZM97.1693 14.332L94.9733 9.14801H94.6133L94.8653 14.332V30.64H92.0573V5.51201H95.5853L103.937 21.82L106.133 27.004H106.493L106.241 21.82V5.51201H109.049V30.64H105.521L97.1693 14.332ZM126.463 30.64C124.687 30.64 123.799 29.752 123.799 27.976V27.616H123.439C123.127 28.744 122.551 29.608 121.711 30.208C120.895 30.784 119.911 31.072 118.759 31.072C116.959 31.072 115.615 30.616 114.727 29.704C113.839 28.792 113.395 27.448 113.395 25.672C113.395 23.944 113.959 22.576 115.087 21.568C116.239 20.56 118.027 20.056 120.451 20.056H123.799V18.004C123.799 16.636 123.487 15.628 122.863 14.98C122.263 14.332 121.303 14.008 119.983 14.008C118.903 14.008 118.027 14.248 117.355 14.728C116.707 15.184 116.143 15.856 115.663 16.744L114.043 15.232C114.523 14.224 115.291 13.384 116.347 12.712C117.403 12.016 118.651 11.668 120.091 11.668C122.203 11.668 123.799 12.184 124.879 13.216C125.983 14.224 126.535 15.724 126.535 17.716V28.228H128.407V30.64H126.463ZM119.443 28.696C120.067 28.696 120.643 28.588 121.171 28.372C121.723 28.156 122.191 27.88 122.575 27.544C122.959 27.184 123.259 26.788 123.475 26.356C123.691 25.9 123.799 25.432 123.799 24.952V22.144H120.379C118.939 22.144 117.883 22.384 117.211 22.864C116.563 23.344 116.239 24.04 116.239 24.952V25.96C116.239 26.896 116.527 27.592 117.103 28.048C117.679 28.48 118.459 28.696 119.443 28.696ZM135.838 30.64C134.854 30.64 134.134 30.424 133.678 29.992C133.246 29.536 133.03 28.816 133.03 27.832V14.476H130.294V12.064H131.914C132.466 12.064 132.826 11.932 132.994 11.668C133.186 11.38 133.282 10.96 133.282 10.408V6.95201H135.766V12.064H139.366V14.476H135.766V28.228H139.186V30.64H135.838ZM153.815 27.616H153.455C153.095 28.768 152.531 29.632 151.763 30.208C151.019 30.784 149.999 31.072 148.703 31.072C147.047 31.072 145.739 30.508 144.779 29.38C143.843 28.252 143.375 26.512 143.375 24.16V12.064H146.111V23.98C146.111 25.468 146.411 26.608 147.011 27.4C147.635 28.192 148.583 28.588 149.855 28.588C150.959 28.588 151.895 28.252 152.663 27.58C153.431 26.908 153.815 25.96 153.815 24.736V12.064H156.551V30.64H153.815V27.616ZM162.012 30.64V12.064H164.748V15.52H165.108C165.42 14.44 165.948 13.6 166.692 13C167.46 12.376 168.456 12.064 169.68 12.064H170.688V14.836H168.888C167.592 14.836 166.572 15.124 165.828 15.7C165.108 16.276 164.748 17.14 164.748 18.292V30.64H162.012ZM180.231 31.072C179.151 31.072 178.143 30.892 177.207 30.532C176.271 30.172 175.467 29.596 174.795 28.804C174.123 28.012 173.595 27.004 173.211 25.78C172.827 24.556 172.635 23.08 172.635 21.352C172.635 19.624 172.827 18.148 173.211 16.924C173.595 15.7 174.123 14.692 174.795 13.9C175.467 13.108 176.271 12.532 177.207 12.172C178.143 11.812 179.151 11.632 180.231 11.632C181.311 11.632 182.295 11.812 183.183 12.172C184.095 12.532 184.863 13.108 185.487 13.9C186.111 14.692 186.591 15.7 186.927 16.924C187.287 18.148 187.467 19.624 187.467 21.352V22.036H175.551V23.224C175.551 25.048 175.959 26.416 176.775 27.328C177.615 28.216 178.767 28.66 180.231 28.66C181.479 28.66 182.499 28.396 183.291 27.868C184.083 27.316 184.707 26.5 185.163 25.42L187.035 26.788C186.459 28.06 185.607 29.092 184.479 29.884C183.375 30.676 181.959 31.072 180.231 31.072ZM180.231 13.936C178.743 13.936 177.591 14.404 176.775 15.34C175.959 16.276 175.551 17.656 175.551 19.48V19.948H184.551V19.48C184.551 15.784 183.111 13.936 180.231 13.936ZM194.527 30.64C193.543 30.64 192.823 30.424 192.367 29.992C191.935 29.536 191.719 28.816 191.719 27.832V4.00001H194.455V28.228H196.795V30.64H194.527Z" fill="black" fill-opacity="0.3"/>
</g>
<defs>
<filter id="filter0_f_472_39" x="0" y="0" width="200.795" height="41.84" filterUnits="userSpaceOnUse" color-interpolation-filters="sRGB">
<feFlood flood-opacity="0" result="BackgroundImageFix"/>
<feBlend mode="normal" in="SourceGraphic" in2="BackgroundImageFix" result="shape"/>
<feGaussianBlur stdDeviation="2" result="effect1_foregroundBlur_472_39"/>
</filter>
</defs>
</svg>
