<svg width="127" height="55" viewBox="0 0 127 55" fill="none" xmlns="http://www.w3.org/2000/svg">
<g filter="url(#filter0_f_472_39)">
<path d="M21.0879 50.2079C15.6692 50.2079 11.4665 48.3519 8.47988 44.6399C5.49321 40.9279 3.99988 35.0826 3.99988 27.1039C3.99988 19.1253 5.49321 13.2799 8.47988 9.56794C11.4665 5.85594 15.6692 3.99994 21.0879 3.99994C26.5065 3.99994 30.7092 5.85594 33.6959 9.56794C36.6825 13.2799 38.1759 19.1253 38.1759 27.1039C38.1759 35.0826 36.6825 40.9279 33.6959 44.6399C30.7092 48.3519 26.5065 50.2079 21.0879 50.2079ZM21.0879 45.6639C24.7999 45.6639 27.6585 44.4479 29.6639 42.0159C31.6692 39.5413 32.6719 36.2346 32.6719 32.0959V22.1119C32.6719 17.9733 31.6692 14.6879 29.6639 12.2559C27.6585 9.78127 24.7999 8.54394 21.0879 8.54394C17.3759 8.54394 14.5172 9.78127 12.5119 12.2559C10.5065 14.6879 9.50388 17.9733 9.50388 22.1119V32.0959C9.50388 36.2346 10.5065 39.5413 12.5119 42.0159C14.5172 44.4479 17.3759 45.6639 21.0879 45.6639ZM44.4699 32.2879V27.6159H85.3019V32.2879H44.4699ZM101.759 20.4479L97.8554 11.2319H97.2154L97.6634 20.4479V49.4399H92.6714V4.76794H98.9434L113.791 33.7599L117.695 42.9759H118.335L117.887 33.7599V4.76794H122.879V49.4399H116.607L101.759 20.4479Z" fill="black" fill-opacity="0.3"/>
</g>
<defs>
<filter id="filter0_f_472_39" x="0" y="0" width="126.879" height="54.2079" filterUnits="userSpaceOnUse" color-interpolation-filters="sRGB">
<feFlood flood-opacity="0" result="BackgroundImageFix"/>
<feBlend mode="normal" in="SourceGraphic" in2="BackgroundImageFix" result="shape"/>
<feGaussianBlur stdDeviation="2" result="effect1_foregroundBlur_472_39"/>
</filter>
</defs>
</svg>
